<?xml version="1.0"?>
<svg width="25px" xmlns="http://www.w3.org/2000/svg" xmlns:xlink="http://www.w3.org/1999/xlink" version="1.1" viewBox="0 0 224 224" width="32px" height="32px"><g transform=""><g fill="none" fill-rule="nonzero" stroke="none" stroke-width="1" stroke-linecap="butt" stroke-linejoin="miter" stroke-miterlimit="10" stroke-dasharray="" stroke-dashoffset="0" font-family="none" font-weight="none" font-size="none" text-anchor="none" style="mix-blend-mode: normal"><path d="M0,224v-224h224v224z" fill="none"/><g fill="#ecf0f1"><g id="surface1"><path d="M133,21c-38.58203,0 -70,31.41797 -70,70c0,16.76172 5.87891,32.12891 15.75,44.1875l-55.78125,55.78125l10.0625,10.0625l55.78125,-55.78125c12.05859,9.87109 27.42578,15.75 44.1875,15.75c38.58203,0 70,-31.41797 70,-70c0,-38.58203 -31.41797,-70 -70,-70zM133,35c31.00782,0 56,24.99219 56,56c0,31.00782 -24.99218,56 -56,56c-31.00781,0 -56,-24.99218 -56,-56c0,-31.00781 24.99219,-56 56,-56z"/></g></g><path d="" fill="none"/><path d="" fill="none"/><path d="M112,224c-61.85589,0 -112,-50.14411 -112,-112v0c0,-61.85589 50.14411,-112 112,-112v0c61.85589,0 112,50.14411 112,112v0c0,61.85589 -50.14411,112 -112,112z" fill="none"/><path d="M112,219.52c-59.38166,0 -107.52,-48.13834 -107.52,-107.52v0c0,-59.38166 48.13834,-107.52 107.52,-107.52h0c59.38166,0 107.52,48.13834 107.52,107.52v0c0,59.38166 -48.13834,107.52 -107.52,107.52z" fill="none"/><path d="M0,224v-224h224v224z" fill="none"/><path d="M4.48,219.52v-215.04h215.04v215.04z" fill="none"/><path d="" fill="none"/><path d="" fill="none"/><path d="" fill="none"/><path d="" fill="none"/><path d="" fill="none"/><path d="" fill="none"/><path d="" fill="none"/><path d="" fill="none"/><path d="" fill="none"/><path d="" fill="none"/><path d="" fill="none"/><path d="M112,224c-61.85589,0 -112,-50.14411 -112,-112v0c0,-61.85589 50.14411,-112 112,-112v0c61.85589,0 112,50.14411 112,112v0c0,61.85589 -50.14411,112 -112,112z" fill="none"/><path d="M112,219.52c-59.38166,0 -107.52,-48.13834 -107.52,-107.52v0c0,-59.38166 48.13834,-107.52 107.52,-107.52h0c59.38166,0 107.52,48.13834 107.52,107.52v0c0,59.38166 -48.13834,107.52 -107.52,107.52z" fill="none"/><path d="M0,224v-224h224v224z" fill="none"/><path d="M4.48,219.52v-215.04h215.04v215.04z" fill="none"/></g></g></svg>
